<!-- width="32" height="32" -->
<svg id="KJANAT-Icon-White" viewBox="0 0 2000 2000" xmlns="http://www.w3.org/2000/svg">
    <path
        fill="white"
        d="M1921.395 610.74c-50.37-119.086-122.466-226.025-214.288-317.847s-198.761-163.918-317.846-214.288C1265.943 26.446 1134.978 0 1000 0 865.023 0 734.057 26.446 610.74 78.605c-119.086 50.37-226.025 122.466-317.847 214.288S128.974 491.654 78.605 610.739C26.447 734.057 0 865.022 0 1000s26.447 265.943 78.605 389.26c50.37 119.086 122.466 226.025 214.288 317.847s198.761 163.918 317.846 214.288C734.057 1973.554 865.023 2000 1000 2000s265.943-26.446 389.26-78.605c119.086-50.37 226.025-122.466 317.847-214.288s163.918-198.761 214.288-317.846C1973.554 1265.943 2000 1134.978 2000 1000s-26.446-265.943-78.605-389.26M1000 1900c-496.262 0-900-403.738-900-900s403.738-900 900-900c196.138 0 377.814 63.08 525.833 170H1123L854 550V270H476v470l951.363 1051.9C1300.15 1860.828 1154.565 1900 1000 1900m480-138.983V1284l-418-454 506.497-527.21C1770.691 467.966 1900 719.162 1900 1000c0 319.922-167.8 601.379-420 761.017M476 1055l378 419v275l-378-419zm0-235 378 418v150L476 970z" />
</svg>
